
    <svg viewBox="0 0 900 340" role="img" aria-label="Monthly Revenue Trend">
        <text x="450.0" y="28" text-anchor="middle" class="chart-title">Monthly Revenue Trend</text>
        <line x1="65" y1="285" x2="870" y2="285" stroke="#cbd5e1" />
        <line x1="65" y1="50" x2="65" y2="285" stroke="#cbd5e1" />
        <text x="57" y="55" text-anchor="end" class="axis-label">$14,850,493</text>
        <text x="57" y="285" text-anchor="end" class="axis-label">$358,177</text>
        <polyline points="65.0,285.0 88.0,285.0 111.0,283.4 134.0,282.4 157.0,279.4 180.0,279.2 203.0,277.0 226.0,274.0 249.0,272.0 272.0,268.8 295.0,260.3 318.0,251.6 341.0,271.3 364.0,272.4 387.0,265.2 410.0,263.3 433.0,258.5 456.0,257.7 479.0,251.3 502.0,245.2 525.0,247.5 548.0,235.3 571.0,208.0 594.0,192.3 617.0,240.2 640.0,245.3 663.0,229.4 686.0,224.6 709.0,212.8 732.0,210.5 755.0,192.7 778.0,181.1 801.0,183.4 824.0,154.8 847.0,88.0 870.0,50.0" fill="none" stroke="#0f766e" stroke-width="4" />
        <circle cx="65.0" cy="285.0" r="3.2" fill="#0f766e"></circle><circle cx="88.0" cy="285.0" r="3.2" fill="#0f766e"></circle><circle cx="111.0" cy="283.4" r="3.2" fill="#0f766e"></circle><circle cx="134.0" cy="282.4" r="3.2" fill="#0f766e"></circle><circle cx="157.0" cy="279.4" r="3.2" fill="#0f766e"></circle><circle cx="180.0" cy="279.2" r="3.2" fill="#0f766e"></circle><circle cx="203.0" cy="277.0" r="3.2" fill="#0f766e"></circle><circle cx="226.0" cy="274.0" r="3.2" fill="#0f766e"></circle><circle cx="249.0" cy="272.0" r="3.2" fill="#0f766e"></circle><circle cx="272.0" cy="268.8" r="3.2" fill="#0f766e"></circle><circle cx="295.0" cy="260.3" r="3.2" fill="#0f766e"></circle><circle cx="318.0" cy="251.6" r="3.2" fill="#0f766e"></circle><circle cx="341.0" cy="271.3" r="3.2" fill="#0f766e"></circle><circle cx="364.0" cy="272.4" r="3.2" fill="#0f766e"></circle><circle cx="387.0" cy="265.2" r="3.2" fill="#0f766e"></circle><circle cx="410.0" cy="263.3" r="3.2" fill="#0f766e"></circle><circle cx="433.0" cy="258.5" r="3.2" fill="#0f766e"></circle><circle cx="456.0" cy="257.7" r="3.2" fill="#0f766e"></circle><circle cx="479.0" cy="251.3" r="3.2" fill="#0f766e"></circle><circle cx="502.0" cy="245.2" r="3.2" fill="#0f766e"></circle><circle cx="525.0" cy="247.5" r="3.2" fill="#0f766e"></circle><circle cx="548.0" cy="235.3" r="3.2" fill="#0f766e"></circle><circle cx="571.0" cy="208.0" r="3.2" fill="#0f766e"></circle><circle cx="594.0" cy="192.3" r="3.2" fill="#0f766e"></circle><circle cx="617.0" cy="240.2" r="3.2" fill="#0f766e"></circle><circle cx="640.0" cy="245.3" r="3.2" fill="#0f766e"></circle><circle cx="663.0" cy="229.4" r="3.2" fill="#0f766e"></circle><circle cx="686.0" cy="224.6" r="3.2" fill="#0f766e"></circle><circle cx="709.0" cy="212.8" r="3.2" fill="#0f766e"></circle><circle cx="732.0" cy="210.5" r="3.2" fill="#0f766e"></circle><circle cx="755.0" cy="192.7" r="3.2" fill="#0f766e"></circle><circle cx="778.0" cy="181.1" r="3.2" fill="#0f766e"></circle><circle cx="801.0" cy="183.4" r="3.2" fill="#0f766e"></circle><circle cx="824.0" cy="154.8" r="3.2" fill="#0f766e"></circle><circle cx="847.0" cy="88.0" r="3.2" fill="#0f766e"></circle><circle cx="870.0" cy="50.0" r="3.2" fill="#0f766e"></circle>
        <text x="65.0" y="320" text-anchor="middle" class="axis-label">Jan 2023</text><text x="180.0" y="320" text-anchor="middle" class="axis-label">Jun 2023</text><text x="318.0" y="320" text-anchor="middle" class="axis-label">Dec 2023</text><text x="456.0" y="320" text-anchor="middle" class="axis-label">Jun 2024</text><text x="594.0" y="320" text-anchor="middle" class="axis-label">Dec 2024</text><text x="732.0" y="320" text-anchor="middle" class="axis-label">Jun 2025</text><text x="870.0" y="320" text-anchor="middle" class="axis-label">Dec 2025</text>
    </svg>
    